<svg id="_" data-name="ͼ" xmlns="http://www.w3.org/2000/svg" width="564.69" height="148.36" viewBox="0 0 564.69 148.36">
  <defs>
    <style>
      .cls-1 {
        fill: none;
      }

      .cls-2, .cls-3, .cls-4, .cls-5 {
        fill: #231815;
      }

      .cls-2 {
        fill-rule: evenodd;
      }

      .cls-4 {
        font-size: 72.02px;
      }

      .cls-4, .cls-5 {
        font-family: YUN-FEN-FEI-YUN-TI;
      }

      .cls-5 {
        font-size: 54.07px;
      }
    </style>
  </defs>
  <rect class="cls-1" width="148.36" height="148.36"/>
  <path id="路径F" class="cls-2" d="M329,175.65c3.48-2.35,18-13.25,30.43-39,12.88-26.61,18.35-47.64,28.33-55.1l0,0c.52-.37,1-.73,1.58-1.06l.22-.11a2.86,2.86,0,0,0,.62-.37,17.68,17.68,0,0,1,3.23-1.39c17.72-5.54,44-13.57,56.8-27.57a42.86,42.86,0,0,1-9.76,17.34c-2.48,3-15.11,17.43-33.74,21.17-6.94,1.39-8.41,3.79-7.28,6.37a4.67,4.67,0,0,0,2.87,1.64c3.13.71,9.92-1.79,13.05-2.85,15.08-5.09,22.27-11.22,29.91-20.11a44.54,44.54,0,0,1-28.21,29.52l-.18.15s-17.21,4.94-27.12,14.67l0,.11c-.44.44-.88.92-1.34,1.42a35.6,35.6,0,0,0-3.08,4c-.3.51-.59,1-.89,1.4l-.16.26-1.58,2.63c-8.08,13.47-20.46,34.11-53.78,46.9Z" transform="translate(-315.12 -36.82)"/>
  <path id="路径R" class="cls-2" d="M437.24,111.58c-6.51,5.41-26.92,18.29-35.25,18.29a7.57,7.57,0,0,1-6.18-11.93v0c-2.66,1.42-5.92,4.2-9.22,9.62-.58,1-1.06,1.76-1.57,2.61-7.73,12.89-19.32,32.22-48.8,45.4l2.07-.24c1.07-.17,2.46-.41,4.08-.74,9.32-2.17,27.92-8.1,40.19-22.59a26.23,26.23,0,0,1,8.67-6.51,82,82,0,0,1,9.05-2.94c10.21-3.77,28.08-12.45,36.39-29.2C437.08,112.21,437.24,111.58,437.24,111.58Z" transform="translate(-315.12 -36.82)"/>
  <path id="路径E" class="cls-3" d="M408.65,152.07s-12.1,15.48-22,13c-4-.8-4-7-2.82-10.08,1.9-4.87,8.42-9.92,13.83-8.78,0,0,3.88,1.66.19,6.75-2.41,3.33-7.82,6.17-8.61,1.72,1.63,1.84,6.17-1.89,7.09-4.44.13-.35.43-1.12-.12-1.08-3.31.22-6.26,3.1-7.18,4.08s-6.51,6.79-2.11,8.42C391.65,163.44,408.65,152.07,408.65,152.07Z" transform="translate(-315.12 -36.82)"/>
  <text class="cls-4" transform="translate(161.68 94.93)">爱</text>
  <text class="cls-4" transform="translate(213.9 94.92)">自</text>
  <text class="cls-4" transform="translate(273.77 94.93)">由</text>
  <text class="cls-5" transform="translate(350.47 90.22)">-</text>
  <text class="cls-4" transform="translate(396.89 85.05)">i</text>
  <text class="cls-4" transform="translate(418.47 74.78)">f</text>
  <text class="cls-4" transform="translate(463.9 80.65)">r</text>
  <text class="cls-4" transform="translate(491.61 80.65)">e</text>
  <text class="cls-4" transform="translate(527.34 80.65)">e</text>
</svg>
